<svg width="24" height="24" viewBox="0 0 24 24" fill="none" xmlns="http://www.w3.org/2000/svg">
<path d="M12 1.75C9.97275 1.75 7.99101 2.35115 6.30541 3.47744C4.61981 4.60372 3.30604 6.20455 2.53024 8.07749C1.75444 9.95044 1.55146 12.0114 1.94696 13.9997C2.34245 15.988 3.31867 17.8144 4.75216 19.2478C6.18565 20.6813 8.01202 21.6576 10.0003 22.053C11.9886 22.4485 14.0496 22.2456 15.9225 21.4698C17.7955 20.694 19.3963 19.3802 20.5226 17.6946C21.6489 16.009 22.25 14.0273 22.25 12C22.2474 9.28234 21.1666 6.67675 19.2449 4.75508C17.3233 2.83341 14.7177 1.75265 12 1.75ZM11.25 6.37C11.25 6.17109 11.329 5.98032 11.4697 5.83967C11.6103 5.69902 11.8011 5.62 12 5.62C12.1989 5.62 12.3897 5.69902 12.5303 5.83967C12.671 5.98032 12.75 6.17109 12.75 6.37V10.88C12.75 11.0789 12.671 11.2697 12.5303 11.4103C12.3897 11.551 12.1989 11.63 12 11.63C11.8011 11.63 11.6103 11.551 11.4697 11.4103C11.329 11.2697 11.25 11.0789 11.25 10.88V6.37ZM17.67 13.3C17.4443 14.253 16.9817 15.1336 16.3252 15.8603C15.6686 16.587 14.8393 17.1362 13.914 17.4572C12.9888 17.7782 11.9975 17.8604 11.0319 17.6964C10.0664 17.5324 9.1579 17.1274 8.39053 16.5188C7.62316 15.9103 7.02175 15.118 6.64201 14.2153C6.26227 13.3125 6.11648 12.3286 6.21813 11.3545C6.31979 10.3804 6.6656 9.44778 7.22355 8.6429C7.78149 7.83802 8.53353 7.18696 9.41 6.75C9.58903 6.66248 9.79548 6.64966 9.98396 6.71436C10.1724 6.77906 10.3275 6.91598 10.415 7.095C10.5025 7.27402 10.5153 7.48048 10.4506 7.66895C10.3859 7.85743 10.249 8.01248 10.07 8.1C9.19505 8.53134 8.49276 9.24736 8.07845 10.1305C7.66413 11.0136 7.56242 12.0114 7.79 12.96C8.01014 13.9091 8.54607 14.7553 9.31001 15.36C10.0832 15.9488 11.0282 16.2676 12 16.2676C12.9718 16.2676 13.9168 15.9488 14.69 15.36C15.2587 14.9062 15.7038 14.3163 15.9844 13.645C16.2649 12.9737 16.3717 12.2425 16.2949 11.5189C16.2182 10.7954 15.9604 10.1029 15.5453 9.50534C15.1302 8.90778 14.5712 8.42446 13.92 8.1C13.741 8.01115 13.6046 7.85483 13.5408 7.66542C13.4771 7.476 13.4912 7.26902 13.58 7.09C13.6689 6.91098 13.8252 6.77458 14.0146 6.71082C14.204 6.64706 14.411 6.66115 14.59 6.75C15.7643 7.33838 16.7078 8.30298 17.27 9.49C17.8161 10.6831 17.9429 12.0257 17.63 13.3H17.67Z" fill="#F24822"/>
</svg>
