<svg width="23" height="26" viewBox="0 0 23 26" fill="none" xmlns="http://www.w3.org/2000/svg">
<path d="M6.91797 7.10547C7.86328 6.16016 8.99479 5.6875 10.3125 5.6875C11.6302 5.6875 12.7617 6.16016 13.707 7.10547C14.6523 8.05078 15.125 9.18229 15.125 10.5C15.125 11.3021 14.9245 12.0612 14.5234 12.7773C14.151 13.4935 13.6354 14.0664 12.9766 14.4961C14.237 15.0404 15.2539 15.8854 16.0273 17.0312C16.8008 18.1484 17.1875 19.4089 17.1875 20.8125H15.8125C15.8125 19.2943 15.2682 18.0052 14.1797 16.9453C13.1198 15.8568 11.8307 15.3125 10.3125 15.3125C8.79427 15.3125 7.49089 15.8568 6.40234 16.9453C5.34245 18.0052 4.8125 19.2943 4.8125 20.8125H3.4375C3.4375 19.4089 3.82422 18.1484 4.59766 17.0312C5.37109 15.8854 6.38802 15.0404 7.64844 14.4961C6.98958 14.0664 6.45964 13.4935 6.05859 12.7773C5.6862 12.0612 5.5 11.3021 5.5 10.5C5.5 9.18229 5.97266 8.05078 6.91797 7.10547ZM12.7188 8.09375C12.0599 7.40625 11.2578 7.0625 10.3125 7.0625C9.36719 7.0625 8.55078 7.40625 7.86328 8.09375C7.20443 8.7526 6.875 9.55469 6.875 10.5C6.875 11.4453 7.20443 12.2617 7.86328 12.9492C8.55078 13.6081 9.36719 13.9375 10.3125 13.9375C11.2578 13.9375 12.0599 13.6081 12.7188 12.9492C13.4062 12.2617 13.75 11.4453 13.75 10.5C13.75 9.55469 13.4062 8.7526 12.7188 8.09375Z" fill="black"/>
<path opacity="0.587821" d="M17.9987 15.4444C16.8021 15.4444 15.832 14.4744 15.832 13.2778C15.832 12.0812 16.8021 11.1111 17.9987 11.1111C19.1953 11.1111 20.1654 12.0812 20.1654 13.2778C20.1654 14.4744 19.1953 15.4444 17.9987 15.4444Z" fill="black"/>
<path fill-rule="evenodd" clip-rule="evenodd" d="M19.1545 20.5H21.94C22.3318 20.5 22.3379 20.1726 22.3318 20.0667C22.1807 17.4377 20.1715 16.1938 17.7109 16.1671C18.6174 17.3741 19.1545 18.8743 19.1545 20.5C19.1545 20.5 19.1545 20.5 19.1545 20.5Z" fill="black"/>
</svg>
