<svg width="16" height="16" viewBox="0 0 16 16" fill="none" xmlns="http://www.w3.org/2000/svg">
<g clip-path="url(#clip0_494_8507)">
<path d="M3.875 4.25H1.125C0.959298 4.25019 0.800437 4.3161 0.683268 4.43327C0.566099 4.55044 0.50019 4.7093 0.5 4.875V14.875C0.50019 15.0407 0.566099 15.1996 0.683268 15.3167C0.800437 15.4339 0.959298 15.4998 1.125 15.5H3.875C4.0407 15.4998 4.19956 15.4339 4.31673 15.3167C4.4339 15.1996 4.49981 15.0407 4.5 14.875V4.875C4.49981 4.7093 4.4339 4.55044 4.31673 4.43327C4.19956 4.3161 4.0407 4.25019 3.875 4.25ZM3.5 14.5H1.5V5.25H3.5V14.5ZM9.375 7.5H6.625C6.4593 7.50019 6.30044 7.5661 6.18327 7.68327C6.0661 7.80044 6.00019 7.9593 6 8.125V14.875C6.00019 15.0407 6.0661 15.1996 6.18327 15.3167C6.30044 15.4339 6.4593 15.4998 6.625 15.5H9.375C9.5407 15.4998 9.69956 15.4339 9.81673 15.3167C9.9339 15.1996 9.99981 15.0407 10 14.875V8.125C9.99981 7.9593 9.9339 7.80044 9.81673 7.68327C9.69956 7.5661 9.5407 7.50019 9.375 7.5ZM9 14.5H7V8.5H9V14.5ZM14.875 0.5H12.125C11.9593 0.50019 11.8004 0.566099 11.6833 0.683268C11.5661 0.800437 11.5002 0.959298 11.5 1.125V14.875C11.5002 15.0407 11.5661 15.1996 11.6833 15.3167C11.8004 15.4339 11.9593 15.4998 12.125 15.5H14.875C15.0407 15.4998 15.1996 15.4339 15.3167 15.3167C15.4339 15.1996 15.4998 15.0407 15.5 14.875V1.125C15.4998 0.959298 15.4339 0.800437 15.3167 0.683268C15.1996 0.566099 15.0407 0.50019 14.875 0.5ZM14.5 14.5H12.5V1.5H14.5V14.5Z" fill="white"/>
</g>
<defs>
<clipPath id="clip0_494_8507">
<rect width="16" height="16" fill="white"/>
</clipPath>
</defs>
</svg>
